<svg xmlns="http://www.w3.org/2000/svg" viewBox="0 0 1024 1024" role="img" aria-labelledby="title desc">
  <title id="title">Wanderaid Wan shadow flat icon candidate</title>
  <desc id="desc">A minimal flat lemonade cup icon with a Wan wordmark repeated as an offset back layer.</desc>
  <rect width="1024" height="1024" rx="224" fill="#0E9F9A"/>

  <g transform="translate(0 8)">
    <path d="M350 252h324l-48 474c-6 58-55 102-114 102s-108-44-114-102l-48-474z" fill="#FFF6DD"/>
    <path d="M414 338h196l-34 348c-3 33-31 58-64 58s-61-25-64-58l-34-348z" fill="#F25568"/>
    <rect x="318" y="212" width="388" height="104" rx="38" fill="#FFF6DD"/>

    <path d="M498 218l-34-168h58l34 168z" fill="#F25568"/>
    <rect x="428" y="42" width="170" height="56" rx="28" fill="#FFF6DD"/>
    <rect x="480" y="42" width="58" height="56" fill="#F25568"/>

    <path d="M654 198a88 88 0 0 1 124 0l-62 62z" fill="#FFD43B"/>
    <path d="M716 260l-62-62a88 88 0 0 0 0 124z" fill="#FFD43B"/>

    <path d="M190 500h644l-86 106H276z" fill="#FFD43B"/>
    <path d="M190 500l112-82v82z" fill="#FFD43B"/>
    <path d="M834 500l-112-82v82z" fill="#FFD43B"/>
    <path d="M276 606l-86 76h124z" fill="#FFD43B"/>
    <path d="M748 606l86 76H710z" fill="#FFD43B"/>

    <text x="548" y="596"
      fill="#F25568"
      font-family="Arial Rounded MT Bold, Avenir Next Rounded, Arial, sans-serif"
      font-size="156"
      font-weight="800"
      text-anchor="middle"
      letter-spacing="0">Wan</text>
    <text x="502" y="562"
      fill="#0E9F9A"
      font-family="Arial Rounded MT Bold, Avenir Next Rounded, Arial, sans-serif"
      font-size="156"
      font-weight="800"
      text-anchor="middle"
      letter-spacing="0">Wan</text>
  </g>
</svg>
