<svg xmlns="http://www.w3.org/2000/svg" viewBox="0 0 1024 1024" role="img" aria-labelledby="title desc">
  <title id="title">Wanderaid minimal Wan flat icon candidate</title>
  <desc id="desc">A minimal flat lemonade cup icon with Wan repeated as a colored offset wordmark.</desc>
  <rect width="1024" height="1024" rx="224" fill="#0E9F9A"/>

  <g transform="translate(0 16)">
    <path d="M368 258h288l-44 456c-6 62-47 106-100 106s-94-44-100-106l-44-456z" fill="#FFF6DD"/>
    <path d="M428 342h168l-31 328c-3 35-24 58-53 58s-50-23-53-58l-31-328z" fill="#F25568"/>
    <rect x="338" y="218" width="348" height="96" rx="38" fill="#FFF6DD"/>

    <path d="M504 222l-38-184h58l38 184z" fill="#F25568"/>
    <rect x="422" y="32" width="178" height="58" rx="29" fill="#FFF6DD"/>
    <rect x="480" y="32" width="58" height="58" fill="#F25568"/>

    <path d="M642 206a86 86 0 0 1 122 0l-61 61z" fill="#FFD43B"/>
    <path d="M703 267l-61-61a86 86 0 0 0 0 122z" fill="#FFD43B"/>

    <rect x="306" y="492" width="412" height="142" rx="48" fill="#FFD43B"/>
    <text x="540" y="602"
      fill="#F25568"
      font-family="Arial Rounded MT Bold, Avenir Next Rounded, Arial, sans-serif"
      font-size="166"
      font-weight="800"
      text-anchor="middle"
      letter-spacing="0">Wan</text>
    <text x="496" y="570"
      fill="#0E9F9A"
      font-family="Arial Rounded MT Bold, Avenir Next Rounded, Arial, sans-serif"
      font-size="166"
      font-weight="800"
      text-anchor="middle"
      letter-spacing="0">Wan</text>
  </g>
</svg>
